<svg width="230" height="147" viewBox="0 0 230 147" fill="none" xmlns="http://www.w3.org/2000/svg">
  <g clip-path="url(#a)">
    <path d="M58.63 2.788c4.99 2.236 8.727 5.839 11.183 10.784 2.456 4.944 3.683 10.6 3.683 16.938 0 4.024-.574 8.47-1.724 13.335-2.534 10.205-6.845 19.674-12.907 28.406-6.061 8.732-13.403 14.992-22 18.78-4.44 1.92-8.856 2.892-13.246 2.892-5.905 0-11.026-1.657-15.31-4.997C3.998 85.612 1.41 80.85.47 74.67.157 72.593 0 70.304 0 67.832c0-7.733 1.568-15.676 4.73-23.83 3.16-8.153 7.184-15.754 12.096-22.777 3.971-5.733 8.805-10.704 14.449-14.913C36.918 2.104 42.614 0 48.388 0c3.449 0 6.793.894 10.007 2.656l.235.132zM39.4 80.22c3.527-2.946 7.029-7.18 10.477-12.756 3.45-5.576 6.297-11.6 8.518-18.096 2.22-6.496 3.344-12.572 3.344-18.2 0-6.181-1.567-11.284-4.677-15.308-3.109-4.024-8.047-6.418-14.788-7.18-6.532 1.315-13.43 9.205-20.719 23.645-6.218 12.361-9.327 23.145-9.327 32.35 0 3.236.392 6.313 1.15 9.154.992 3.708 2.716 6.523 5.12 8.469 2.43 1.92 5.252 2.893 8.465 2.893 4.285.026 8.44-1.63 12.437-4.97zM95.365 21.228c4.755 1.63 9.066 4.34 12.907 8.18 3.84 3.813 6.845 8.258 9.04 13.334 2.194 5.05 3.292 10.1 3.292 15.124 0 2.709-.34 5.34-1.045 7.89-1.463 5.34-3.658 10.1-6.611 14.308-2.952 4.209-6.479 7.55-10.607 9.969-4.102 2.446-8.492 3.656-13.195 3.656-1.463 0-2.952-.105-4.494-.342-3.083 19.779-5.826 35.928-8.282 48.474-.314 1.473-1.385 2.709-3.214 3.708-1.855 1-3.736 1.5-5.643 1.5-1.307 0-2.326-.263-3.057-.816-.732-.552-.967-1.341-.758-2.446 3.762-19.174 7.054-37.453 9.902-54.839l-.235-.105c-.993-.684-1.489-1.473-1.489-2.315 0-1.315.914-2.55 2.77-3.708 2.456-14.308 5.225-32.667 8.282-55.076l-1.49.105-1.254.106c-1.306 0-2.272-.237-2.873-.684-.628-.474-.915-1.052-.915-1.736 0-1.157.575-2.288 1.725-3.367 1.15-1.078 2.56-1.788 4.258-2.078 1.385-.236 2.77-.341 4.154-.341.993 0 2.352.078 4.024.236 2.43-.342 4.024.105 4.808 1.263zm13.455 42.188c.314-1.316.471-2.867.471-4.63 0-6.18-2.3-12.203-6.898-18.095-2.613-3.393-5.382-6.155-8.282-8.233-2.3 14.466-4.103 26.118-5.409 35.008-.627 3.63-1.463 9.074-2.534 16.36 2.299 1.078 4.415 1.63 6.323 1.63 3.213 0 6.14-1.578 8.752-4.76 1.908-2.315 3.528-4.998 4.834-7.996 1.306-3.025 2.221-6.102 2.743-9.284z" fill="#231F20"/>
    <path d="M153.29 22.384c1.228-.316 2.535-.474 3.919-.474 7.368 0 14.057 4.997 20.04 14.966.235.315.34.684.34 1.157 0 .842-.549 1.736-1.62 2.657-.836.92-1.907 1.657-3.214 2.209-7.681 3.393-18.341 7.47-32.006 12.178-.758 3.945-1.15 7.995-1.15 12.177 0 1.92.027 3.314.105 4.182.157 3.472.836 6.497 2.064 9.048.392.842.941 1.657 1.672 2.446.732.763 1.28 1.262 1.672 1.5.236.157.627.236 1.15.236.523 0 1.176-.158 1.907-.474.732-.315 1.568-.736 2.482-1.262 2.221-1.315 4.311-2.814 6.219-4.524 1.907-1.71 4.232-3.893 6.897-6.602 1.072-1.078 2.874-1.63 5.409-1.63 1.384 0 2.56.21 3.501.631.967.42 1.437 1.026 1.437 1.788 0 .684-.392 1.473-1.15 2.315-4.755 5.181-9.641 9.574-14.631 13.204-4.99 3.63-9.981 5.444-14.971 5.444-2.378 0-4.599-.5-6.689-1.5-3.449-1.63-5.957-4.208-7.498-7.758-1.542-3.551-2.3-7.733-2.3-12.52 0-3.55.471-7.733 1.385-12.52l-.914.237-.915.342c-1.149.395-2.064.579-2.769.579-1.072 0-1.908-.263-2.535-.816-.627-.552-.914-1.236-.914-2.077 0-1 .392-2 1.202-2.946.81-.973 2.012-1.762 3.631-2.367L130.69 50c.679-2.156 1.724-4.997 3.109-8.469 2.143-4.787 4.834-8.916 8.074-12.414 3.239-3.498 7.028-5.734 11.417-6.733zm-.47 8.232c-3.919 3.025-7.107 7.89-9.563 14.597 7.525-2.866 14.318-5.26 20.38-7.18-2.535-3.55-5.095-5.944-7.708-7.18-.549-.237-1.045-.395-1.568-.474-.496-.079-.783-.105-.862-.105.079.079.026.158-.183.237-.156.052-.339.105-.496.105zM225.375 22.252c3.083 1.71 4.598 5.286 4.598 10.783 0 2-.183 4.235-.575 6.655-.392 2.446-.81 4.734-1.254 6.89l-.81 4.63-4.833 36.06c1.541.394 2.194 1.34 1.959 2.892-.836 4.261-3.841 6.944-8.988 8.128l-1.149.105c-1.307 0-2.456-.263-3.449-.816-.993-.552-1.411-1.393-1.254-2.55 3.213-23.488 5.617-41.11 7.133-52.867.078-.316.261-1.21.522-2.657.261-1.473.392-2.867.392-4.181 0-2.473-.653-3.762-1.959-3.814-.993-.158-2.639 1.21-4.886 4.103-2.273 2.893-3.501 4.497-3.737 4.813-4.598 5.26-8.909 11.126-12.906 17.622-1.856 11.284-3.293 20.41-4.39 27.354l-.575 3.708c-.235 1.473-1.306 2.736-3.213 3.814-1.908 1.078-3.789 1.63-5.644 1.63-1.15 0-2.064-.262-2.717-.762s-.915-1.262-.758-2.262c1.986-11.836 3.58-21.488 4.729-28.984-.47-.474-.679-1-.679-1.631 0-.395.104-.815.34-1.262.235-.395.444-.737.627-1.053.183-.315.365-.578.522-.815l4.599-28.064c.235-1.394 1.254-2.577 3.109-3.603 1.855-1 3.684-1.5 5.539-1.5 1.149 0 2.038.237 2.639.684.627.474.836 1.158.679 2.078-.392 2.552-.914 5.84-1.62 9.863l4.834-5.207c3.213-3.235 6.296-5.918 9.223-7.996 2.926-2.078 5.878-3.13 8.857-3.13 1.959.08 3.632.5 5.095 1.341zM100.592 111.125c-1.097 0-1.96.369-2.587 1.105-.627.736-.94 1.736-.94 2.998 0 1.315.313 2.315.914 3.025s1.49 1.078 2.613 1.078c.705 0 1.489-.131 2.377-.368v1.026c-.679.263-1.541.395-2.56.395-1.463 0-2.587-.448-3.397-1.342-.783-.894-1.201-2.157-1.201-3.814 0-1.025.182-1.946.574-2.709.392-.762.94-1.367 1.646-1.788.732-.421 1.568-.631 2.561-.631 1.045 0 1.959.184 2.743.578l-.496 1c-.758-.369-1.516-.553-2.247-.553zM113.996 110.229v6.471c0 1.131-.34 2.025-1.019 2.682-.68.658-1.62.974-2.822.974s-2.116-.316-2.77-.974c-.653-.657-.992-1.551-.992-2.709v-6.444h1.149v6.523c0 .842.235 1.473.68 1.92.444.447 1.123.658 1.985.658.836 0 1.489-.237 1.934-.684.444-.447.679-1.105.679-1.92v-6.523h1.176v.026zM118.018 120.251V110.23h1.149v8.943h4.39v1.078h-5.539zM129.698 120.251h-1.176v-8.968h-3.135v-1.053h7.446v1.053h-3.135v8.968zM143.23 110.229v6.471c0 1.131-.34 2.025-1.019 2.682-.679.658-1.62.974-2.822.974s-2.116-.316-2.769-.974c-.653-.657-.993-1.551-.993-2.709v-6.444h1.15v6.523c0 .842.235 1.473.679 1.92.444.447 1.123.658 1.986.658.836 0 1.489-.237 1.933-.684.444-.447.679-1.105.679-1.92v-6.523h1.176v.026zM148.404 115.07h1.593c.81 0 1.411-.158 1.803-.5.392-.315.575-.815.575-1.473 0-.657-.183-1.131-.575-1.42-.392-.289-1.019-.447-1.855-.447h-1.541v3.84zm0 .999v4.156h-1.15v-9.995h2.717c1.228 0 2.116.237 2.691.711.575.473.862 1.183.862 2.13 0 1.315-.653 2.209-1.985 2.683l2.691 4.497h-1.359l-2.403-4.155h-2.064v-.027zM162.775 120.251h-5.539V110.23h5.539v1.053h-4.389v3.208h4.128v1.026h-4.128v3.682h4.389v1.052zM172.521 115.517v3.735h2.064c.81 0 1.411-.158 1.803-.473.418-.316.6-.79.6-1.473 0-.632-.209-1.079-.627-1.368-.418-.289-1.045-.447-1.881-.447h-1.959v.026zm0-.999h1.907c.81 0 1.411-.132 1.751-.395.365-.263.548-.684.548-1.315 0-.552-.209-.973-.601-1.21s-1.045-.368-1.907-.368h-1.698v3.288zm-1.15-4.288h2.796c1.306 0 2.273.211 2.848.605.601.395.888 1.026.888 1.894 0 .605-.157 1.079-.497 1.473-.339.395-.809.631-1.437.736v.079c1.516.263 2.274 1.052 2.274 2.394 0 .894-.288 1.604-.889 2.104s-1.437.763-2.508.763h-3.475V110.23zM181.77 120.251V110.23h1.175v8.943h4.364v1.078h-5.539zM191.097 115.228c0 1.342.288 2.394.862 3.078.575.71 1.411 1.052 2.509 1.052 1.097 0 1.933-.342 2.482-1.052.548-.71.836-1.736.836-3.078 0-1.341-.288-2.367-.836-3.051-.549-.683-1.385-1.052-2.482-1.052-1.098 0-1.934.342-2.509 1.052-.574.684-.862 1.71-.862 3.051zm7.917 0c0 1.605-.392 2.867-1.202 3.788-.81.92-1.934 1.368-3.344 1.368-1.464 0-2.587-.448-3.397-1.342-.784-.894-1.202-2.183-1.202-3.814 0-1.63.392-2.893 1.202-3.787.81-.894 1.933-1.341 3.397-1.341 1.437 0 2.534.447 3.344 1.367.81.895 1.202 2.157 1.202 3.761zM206.981 114.992h3.37v4.865c-.522.158-1.071.29-1.594.395-.548.079-1.175.132-1.881.132-1.515 0-2.665-.448-3.501-1.342-.836-.894-1.254-2.157-1.254-3.787 0-1.052.209-1.947.627-2.736.418-.789 1.019-1.367 1.803-1.788.784-.421 1.698-.631 2.743-.631 1.072 0 2.038.184 2.953.578l-.444 1.026c-.889-.395-1.751-.579-2.587-.579-1.202 0-2.143.369-2.822 1.079-.679.736-1.019 1.736-1.019 3.024 0 1.342.34 2.368.993 3.078s1.62 1.052 2.874 1.052c.679 0 1.359-.079 2.012-.237v-3.077h-2.221v-1.052h-.052z" fill="#231F20"/>
  </g>
  <defs>
    <clipPath id="a">
      <path fill="#fff" d="M0 0h230v147H0z"/>
    </clipPath>
  </defs>
</svg>
