<svg width="231" height="61" viewBox="0 0 231 61" fill="none" xmlns="http://www.w3.org/2000/svg">
<path fill-rule="evenodd" clip-rule="evenodd" d="M44 7.98604L59.417 0L75 7.98604L59.417 16L44 7.98604ZM136.554 11.8688V11.6787C136.554 9.04427 138.104 8.20235 140.713 8.39246V3.58535C134.461 3.20513 131.498 6.32839 131.498 11.6787V11.8688H128.671V16.6759H131.498V31.233H136.554V16.6759H139.544H140.713H142.371V31.233H147.427V16.6759H151.586V11.8688H147.427V11.6787C147.427 9.04427 148.949 8.20235 151.586 8.39246V3.58535C145.334 3.20513 142.371 6.32839 142.371 11.6787V11.8688H140.713H139.544H136.554ZM101.216 17.1371C102.82 15.8606 103.798 14.041 103.798 11.7053C103.798 7.16983 100.101 4.07373 95.4528 4.07373H84.6611V31.1782H96.3227C101.08 31.1782 104.885 27.9735 104.885 23.3293C104.831 20.5319 103.418 18.3864 101.216 17.1371ZM95.48 9.0981C97.2197 9.0981 98.4158 10.3746 98.4158 12.0856C98.4158 13.7966 97.1654 15.073 95.48 15.073H90.0706V9.0981H95.48ZM96.2955 26.2081H90.0706V19.8258H96.2955C98.144 19.8258 99.4759 21.1838 99.4759 23.0034C99.4759 24.8502 98.144 26.2081 96.2955 26.2081ZM120.652 11.8408V22.2969C120.652 25.6646 118.803 27.104 116.33 27.104C114.046 27.104 112.442 25.7461 112.442 23.1117V11.8408H107.386V23.7364C107.386 28.8965 110.621 31.7482 114.807 31.7482C117.444 31.7482 119.483 30.7705 120.624 29.0323V31.205H125.681V11.8408H120.652ZM172.544 23.5739H157.757C158.491 26.1269 160.611 27.2132 163.248 27.2132C165.232 27.2132 166.809 26.3984 167.652 25.2849L171.729 27.5934C169.908 30.2278 166.972 31.7487 163.193 31.7487C156.615 31.7487 152.456 27.2947 152.456 21.5099C152.456 15.725 156.642 11.271 162.813 11.271C168.603 11.271 172.735 15.8065 172.735 21.5099C172.735 22.2703 172.653 22.9221 172.544 23.5739ZM162.813 15.8065C160.095 15.8065 158.246 17.2459 157.675 19.7174H167.679C167.053 16.92 164.933 15.8065 162.813 15.8065ZM180.047 15.1822V11.8416H174.991V31.2059H180.047V21.9447C180.047 17.8709 183.364 16.7031 186 17.029V11.4614C183.527 11.4614 181.053 12.5478 180.047 15.1822ZM59.417 29.7037L48.8991 24L44 26.6481L59.417 35L75 26.6481L70.0455 24L59.417 29.7037ZM48.8991 15L59.417 20.1724L70.0455 15L75 17.4138L59.417 25L44 17.4138L48.8991 15Z" fill="#231F20"/>
<path d="M50.9362 48.636L48.2123 53.844V57H47.1203V53.844L44.3843 48.636H45.5963L47.6603 52.872L49.7243 48.636H50.9362ZM54.9561 57.108C54.3401 57.108 53.7801 56.968 53.2761 56.688C52.7801 56.408 52.3881 56.012 52.1001 55.5C51.8201 54.98 51.6801 54.38 51.6801 53.7C51.6801 53.028 51.8241 52.436 52.1121 51.924C52.4081 51.404 52.8081 51.008 53.3121 50.736C53.8161 50.456 54.3801 50.316 55.0041 50.316C55.6281 50.316 56.1921 50.456 56.6961 50.736C57.2001 51.008 57.5961 51.4 57.8841 51.912C58.1801 52.424 58.3281 53.02 58.3281 53.7C58.3281 54.38 58.1761 54.98 57.8721 55.5C57.5761 56.012 57.1721 56.408 56.6601 56.688C56.1481 56.968 55.5801 57.108 54.9561 57.108ZM54.9561 56.148C55.3481 56.148 55.7161 56.056 56.0601 55.872C56.4041 55.688 56.6801 55.412 56.8881 55.044C57.1041 54.676 57.2121 54.228 57.2121 53.7C57.2121 53.172 57.1081 52.724 56.9001 52.356C56.6921 51.988 56.4201 51.716 56.0841 51.54C55.7481 51.356 55.3841 51.264 54.9921 51.264C54.5921 51.264 54.2241 51.356 53.8881 51.54C53.5601 51.716 53.2961 51.988 53.0961 52.356C52.8961 52.724 52.7961 53.172 52.7961 53.7C52.7961 54.236 52.8921 54.688 53.0841 55.056C53.2841 55.424 53.5481 55.7 53.8761 55.884C54.2041 56.06 54.5641 56.148 54.9561 56.148ZM65.5958 50.424V57H64.5038V56.028C64.2958 56.364 64.0038 56.628 63.6278 56.82C63.2598 57.004 62.8518 57.096 62.4038 57.096C61.8918 57.096 61.4318 56.992 61.0238 56.784C60.6158 56.568 60.2918 56.248 60.0518 55.824C59.8198 55.4 59.7038 54.884 59.7038 54.276V50.424H60.7838V54.132C60.7838 54.78 60.9478 55.28 61.2758 55.632C61.6038 55.976 62.0518 56.148 62.6198 56.148C63.2038 56.148 63.6638 55.968 63.9998 55.608C64.3358 55.248 64.5038 54.724 64.5038 54.036V50.424H65.5958ZM68.5316 51.492C68.7236 51.116 68.9956 50.824 69.3476 50.616C69.7076 50.408 70.1436 50.304 70.6556 50.304V51.432H70.3676C69.1436 51.432 68.5316 52.096 68.5316 53.424V57H67.4396V50.424H68.5316V51.492ZM79.3034 52.692C79.6074 52.74 79.8834 52.864 80.1314 53.064C80.3874 53.264 80.5874 53.512 80.7314 53.808C80.8834 54.104 80.9594 54.42 80.9594 54.756C80.9594 55.18 80.8514 55.564 80.6354 55.908C80.4194 56.244 80.1034 56.512 79.6874 56.712C79.2794 56.904 78.7954 57 78.2354 57H75.1154V48.636H78.1154C78.6834 48.636 79.1674 48.732 79.5674 48.924C79.9674 49.108 80.2674 49.36 80.4674 49.68C80.6674 50 80.7674 50.36 80.7674 50.76C80.7674 51.256 80.6314 51.668 80.3594 51.996C80.0954 52.316 79.7434 52.548 79.3034 52.692ZM76.2074 52.248H78.0434C78.5554 52.248 78.9514 52.128 79.2314 51.888C79.5114 51.648 79.6514 51.316 79.6514 50.892C79.6514 50.468 79.5114 50.136 79.2314 49.896C78.9514 49.656 78.5474 49.536 78.0194 49.536H76.2074V52.248ZM78.1394 56.1C78.6834 56.1 79.1074 55.972 79.4114 55.716C79.7154 55.46 79.8674 55.104 79.8674 54.648C79.8674 54.184 79.7074 53.82 79.3874 53.556C79.0674 53.284 78.6394 53.148 78.1034 53.148H76.2074V56.1H78.1394ZM88.3068 50.424V57H87.2148V56.028C87.0068 56.364 86.7148 56.628 86.3388 56.82C85.9708 57.004 85.5628 57.096 85.1148 57.096C84.6028 57.096 84.1428 56.992 83.7348 56.784C83.3268 56.568 83.0028 56.248 82.7628 55.824C82.5308 55.4 82.4148 54.884 82.4148 54.276V50.424H83.4948V54.132C83.4948 54.78 83.6588 55.28 83.9868 55.632C84.3148 55.976 84.7628 56.148 85.3308 56.148C85.9148 56.148 86.3748 55.968 86.7108 55.608C87.0468 55.248 87.2148 54.724 87.2148 54.036V50.424H88.3068ZM92.8266 51.324H91.4466V57H90.3546V51.324H89.5026V50.424H90.3546V49.956C90.3546 49.22 90.5426 48.684 90.9186 48.348C91.3026 48.004 91.9146 47.832 92.7546 47.832V48.744C92.2746 48.744 91.9346 48.84 91.7346 49.032C91.5426 49.216 91.4466 49.524 91.4466 49.956V50.424H92.8266V51.324ZM96.7758 51.324H95.3958V57H94.3038V51.324H93.4518V50.424H94.3038V49.956C94.3038 49.22 94.4918 48.684 94.8678 48.348C95.2518 48.004 95.8638 47.832 96.7038 47.832V48.744C96.2238 48.744 95.8838 48.84 95.6838 49.032C95.4918 49.216 95.3958 49.524 95.3958 49.956V50.424H96.7758V51.324ZM104.049 53.46C104.049 53.668 104.037 53.888 104.013 54.12H98.757C98.797 54.768 99.017 55.276 99.417 55.644C99.825 56.004 100.317 56.184 100.893 56.184C101.365 56.184 101.757 56.076 102.069 55.86C102.389 55.636 102.613 55.34 102.741 54.972H103.917C103.741 55.604 103.389 56.12 102.861 56.52C102.333 56.912 101.677 57.108 100.893 57.108C100.269 57.108 99.709 56.968 99.213 56.688C98.725 56.408 98.341 56.012 98.061 55.5C97.781 54.98 97.641 54.38 97.641 53.7C97.641 53.02 97.777 52.424 98.049 51.912C98.321 51.4 98.701 51.008 99.189 50.736C99.685 50.456 100.253 50.316 100.893 50.316C101.517 50.316 102.069 50.452 102.549 50.724C103.029 50.996 103.397 51.372 103.653 51.852C103.917 52.324 104.049 52.86 104.049 53.46ZM102.921 53.232C102.921 52.816 102.829 52.46 102.645 52.164C102.461 51.86 102.209 51.632 101.889 51.48C101.577 51.32 101.229 51.24 100.845 51.24C100.293 51.24 99.821 51.416 99.429 51.768C99.045 52.12 98.825 52.608 98.769 53.232H102.921ZM106.582 51.492C106.774 51.116 107.046 50.824 107.398 50.616C107.758 50.408 108.194 50.304 108.706 50.304V51.432H108.418C107.194 51.432 106.582 52.096 106.582 53.424V57H105.49V50.424H106.582V51.492ZM115.818 57.084C115.266 57.084 114.77 56.988 114.33 56.796C113.898 56.596 113.558 56.324 113.31 55.98C113.062 55.628 112.934 55.224 112.926 54.768H114.09C114.13 55.16 114.29 55.492 114.57 55.764C114.858 56.028 115.274 56.16 115.818 56.16C116.338 56.16 116.746 56.032 117.042 55.776C117.346 55.512 117.498 55.176 117.498 54.768C117.498 54.448 117.41 54.188 117.234 53.988C117.058 53.788 116.838 53.636 116.574 53.532C116.31 53.428 115.954 53.316 115.506 53.196C114.954 53.052 114.51 52.908 114.174 52.764C113.846 52.62 113.562 52.396 113.322 52.092C113.09 51.78 112.974 51.364 112.974 50.844C112.974 50.388 113.09 49.984 113.322 49.632C113.554 49.28 113.878 49.008 114.294 48.816C114.718 48.624 115.202 48.528 115.746 48.528C116.53 48.528 117.17 48.724 117.666 49.116C118.17 49.508 118.454 50.028 118.518 50.676H117.318C117.278 50.356 117.11 50.076 116.814 49.836C116.518 49.588 116.126 49.464 115.638 49.464C115.182 49.464 114.81 49.584 114.522 49.824C114.234 50.056 114.09 50.384 114.09 50.808C114.09 51.112 114.174 51.36 114.342 51.552C114.518 51.744 114.73 51.892 114.978 51.996C115.234 52.092 115.59 52.204 116.046 52.332C116.598 52.484 117.042 52.636 117.378 52.788C117.714 52.932 118.002 53.16 118.242 53.472C118.482 53.776 118.602 54.192 118.602 54.72C118.602 55.128 118.494 55.512 118.278 55.872C118.062 56.232 117.742 56.524 117.318 56.748C116.894 56.972 116.394 57.084 115.818 57.084ZM126.041 50.424V57H124.949V56.028C124.741 56.364 124.449 56.628 124.073 56.82C123.705 57.004 123.297 57.096 122.849 57.096C122.337 57.096 121.877 56.992 121.469 56.784C121.061 56.568 120.737 56.248 120.497 55.824C120.265 55.4 120.149 54.884 120.149 54.276V50.424H121.229V54.132C121.229 54.78 121.393 55.28 121.721 55.632C122.049 55.976 122.497 56.148 123.065 56.148C123.649 56.148 124.109 55.968 124.445 55.608C124.781 55.248 124.949 54.724 124.949 54.036V50.424H126.041ZM128.977 51.648C129.201 51.256 129.529 50.936 129.961 50.688C130.393 50.44 130.885 50.316 131.437 50.316C132.029 50.316 132.561 50.456 133.033 50.736C133.505 51.016 133.877 51.412 134.149 51.924C134.421 52.428 134.557 53.016 134.557 53.688C134.557 54.352 134.421 54.944 134.149 55.464C133.877 55.984 133.501 56.388 133.021 56.676C132.549 56.964 132.021 57.108 131.437 57.108C130.869 57.108 130.369 56.984 129.937 56.736C129.513 56.488 129.193 56.172 128.977 55.788V57H127.885V48.12H128.977V51.648ZM133.441 53.688C133.441 53.192 133.341 52.76 133.141 52.392C132.941 52.024 132.669 51.744 132.325 51.552C131.989 51.36 131.617 51.264 131.209 51.264C130.809 51.264 130.437 51.364 130.093 51.564C129.757 51.756 129.485 52.04 129.277 52.416C129.077 52.784 128.977 53.212 128.977 53.7C128.977 54.196 129.077 54.632 129.277 55.008C129.485 55.376 129.757 55.66 130.093 55.86C130.437 56.052 130.809 56.148 131.209 56.148C131.617 56.148 131.989 56.052 132.325 55.86C132.669 55.66 132.941 55.376 133.141 55.008C133.341 54.632 133.441 54.192 133.441 53.688ZM138.322 57.108C137.818 57.108 137.366 57.024 136.966 56.856C136.566 56.68 136.25 56.44 136.018 56.136C135.786 55.824 135.658 55.468 135.634 55.068H136.762C136.794 55.396 136.946 55.664 137.218 55.872C137.498 56.08 137.862 56.184 138.31 56.184C138.726 56.184 139.054 56.092 139.294 55.908C139.534 55.724 139.654 55.492 139.654 55.212C139.654 54.924 139.526 54.712 139.27 54.576C139.014 54.432 138.618 54.292 138.082 54.156C137.594 54.028 137.194 53.9 136.882 53.772C136.578 53.636 136.314 53.44 136.09 53.184C135.874 52.92 135.766 52.576 135.766 52.152C135.766 51.816 135.866 51.508 136.066 51.228C136.266 50.948 136.55 50.728 136.918 50.568C137.286 50.4 137.706 50.316 138.178 50.316C138.906 50.316 139.494 50.5 139.942 50.868C140.39 51.236 140.63 51.74 140.662 52.38H139.57C139.546 52.036 139.406 51.76 139.15 51.552C138.902 51.344 138.566 51.24 138.142 51.24C137.75 51.24 137.438 51.324 137.206 51.492C136.974 51.66 136.858 51.88 136.858 52.152C136.858 52.368 136.926 52.548 137.062 52.692C137.206 52.828 137.382 52.94 137.59 53.028C137.806 53.108 138.102 53.2 138.478 53.304C138.95 53.432 139.334 53.56 139.63 53.688C139.926 53.808 140.178 53.992 140.386 54.24C140.602 54.488 140.714 54.812 140.722 55.212C140.722 55.572 140.622 55.896 140.422 56.184C140.222 56.472 139.938 56.7 139.57 56.868C139.21 57.028 138.794 57.108 138.322 57.108ZM141.856 53.7C141.856 53.02 141.992 52.428 142.264 51.924C142.536 51.412 142.912 51.016 143.392 50.736C143.88 50.456 144.436 50.316 145.06 50.316C145.868 50.316 146.532 50.512 147.052 50.904C147.58 51.296 147.928 51.84 148.096 52.536H146.92C146.808 52.136 146.588 51.82 146.26 51.588C145.94 51.356 145.54 51.24 145.06 51.24C144.436 51.24 143.932 51.456 143.548 51.888C143.164 52.312 142.972 52.916 142.972 53.7C142.972 54.492 143.164 55.104 143.548 55.536C143.932 55.968 144.436 56.184 145.06 56.184C145.54 56.184 145.94 56.072 146.26 55.848C146.58 55.624 146.8 55.304 146.92 54.888H148.096C147.92 55.56 147.568 56.1 147.04 56.508C146.512 56.908 145.852 57.108 145.06 57.108C144.436 57.108 143.88 56.968 143.392 56.688C142.912 56.408 142.536 56.012 142.264 55.5C141.992 54.988 141.856 54.388 141.856 53.7ZM150.645 51.492C150.837 51.116 151.109 50.824 151.461 50.616C151.821 50.408 152.257 50.304 152.769 50.304V51.432H152.481C151.257 51.432 150.645 52.096 150.645 53.424V57H149.553V50.424H150.645V51.492ZM154.593 49.356C154.385 49.356 154.209 49.284 154.065 49.14C153.921 48.996 153.849 48.82 153.849 48.612C153.849 48.404 153.921 48.228 154.065 48.084C154.209 47.94 154.385 47.868 154.593 47.868C154.793 47.868 154.961 47.94 155.097 48.084C155.241 48.228 155.313 48.404 155.313 48.612C155.313 48.82 155.241 48.996 155.097 49.14C154.961 49.284 154.793 49.356 154.593 49.356ZM155.121 50.424V57H154.029V50.424H155.121ZM158.075 51.636C158.291 51.26 158.611 50.948 159.035 50.7C159.467 50.444 159.967 50.316 160.535 50.316C161.119 50.316 161.647 50.456 162.119 50.736C162.599 51.016 162.975 51.412 163.247 51.924C163.519 52.428 163.655 53.016 163.655 53.688C163.655 54.352 163.519 54.944 163.247 55.464C162.975 55.984 162.599 56.388 162.119 56.676C161.647 56.964 161.119 57.108 160.535 57.108C159.975 57.108 159.479 56.984 159.047 56.736C158.623 56.48 158.299 56.164 158.075 55.788V60.12H156.983V50.424H158.075V51.636ZM162.539 53.688C162.539 53.192 162.439 52.76 162.239 52.392C162.039 52.024 161.767 51.744 161.423 51.552C161.087 51.36 160.715 51.264 160.307 51.264C159.907 51.264 159.535 51.364 159.191 51.564C158.855 51.756 158.583 52.04 158.375 52.416C158.175 52.784 158.075 53.212 158.075 53.7C158.075 54.196 158.175 54.632 158.375 55.008C158.583 55.376 158.855 55.66 159.191 55.86C159.535 56.052 159.907 56.148 160.307 56.148C160.715 56.148 161.087 56.052 161.423 55.86C161.767 55.66 162.039 55.376 162.239 55.008C162.439 54.632 162.539 54.192 162.539 53.688ZM166.424 51.324V55.2C166.424 55.52 166.492 55.748 166.628 55.884C166.764 56.012 167 56.076 167.336 56.076H168.14V57H167.156C166.548 57 166.092 56.86 165.788 56.58C165.484 56.3 165.332 55.84 165.332 55.2V51.324H164.48V50.424H165.332V48.768H166.424V50.424H168.14V51.324H166.424ZM170.027 49.356C169.819 49.356 169.643 49.284 169.499 49.14C169.355 48.996 169.283 48.82 169.283 48.612C169.283 48.404 169.355 48.228 169.499 48.084C169.643 47.94 169.819 47.868 170.027 47.868C170.227 47.868 170.395 47.94 170.531 48.084C170.675 48.228 170.747 48.404 170.747 48.612C170.747 48.82 170.675 48.996 170.531 49.14C170.395 49.284 170.227 49.356 170.027 49.356ZM170.555 50.424V57H169.463V50.424H170.555ZM175.284 57.108C174.668 57.108 174.108 56.968 173.604 56.688C173.108 56.408 172.716 56.012 172.428 55.5C172.148 54.98 172.008 54.38 172.008 53.7C172.008 53.028 172.152 52.436 172.44 51.924C172.736 51.404 173.136 51.008 173.64 50.736C174.144 50.456 174.708 50.316 175.332 50.316C175.956 50.316 176.52 50.456 177.024 50.736C177.528 51.008 177.924 51.4 178.212 51.912C178.508 52.424 178.656 53.02 178.656 53.7C178.656 54.38 178.504 54.98 178.2 55.5C177.904 56.012 177.5 56.408 176.988 56.688C176.476 56.968 175.908 57.108 175.284 57.108ZM175.284 56.148C175.676 56.148 176.044 56.056 176.388 55.872C176.732 55.688 177.008 55.412 177.216 55.044C177.432 54.676 177.54 54.228 177.54 53.7C177.54 53.172 177.436 52.724 177.228 52.356C177.02 51.988 176.748 51.716 176.412 51.54C176.076 51.356 175.712 51.264 175.32 51.264C174.92 51.264 174.552 51.356 174.216 51.54C173.888 51.716 173.624 51.988 173.424 52.356C173.224 52.724 173.124 53.172 173.124 53.7C173.124 54.236 173.22 54.688 173.412 55.056C173.612 55.424 173.876 55.7 174.204 55.884C174.532 56.06 174.892 56.148 175.284 56.148ZM183.296 50.304C184.096 50.304 184.744 50.548 185.24 51.036C185.736 51.516 185.984 52.212 185.984 53.124V57H184.904V53.28C184.904 52.624 184.74 52.124 184.412 51.78C184.084 51.428 183.636 51.252 183.068 51.252C182.492 51.252 182.032 51.432 181.688 51.792C181.352 52.152 181.184 52.676 181.184 53.364V57H180.092V50.424H181.184V51.36C181.4 51.024 181.692 50.764 182.06 50.58C182.436 50.396 182.848 50.304 183.296 50.304Z" fill="#231F20"/>
</svg>
