<svg width="88" height="88" viewBox="0 0 88 88" fill="none" xmlns="http://www.w3.org/2000/svg">
<rect y="0.179565" width="87.6025" height="87.6025" rx="8.76025" fill="#CFE7A6"/>
<path d="M17 34.6451V46.5013C17 48.3438 18.4953 49.8391 20.3228 49.8391H23.0565V31.3224H20.3228C18.4953 31.3224 17 32.8176 17 34.6451Z" fill="#364E0D"/>
<path d="M62.8741 32.6215C62.0434 32.6215 61.2429 32.7422 60.4727 32.999V48.1779C61.2429 48.4195 62.0585 48.5404 62.8741 48.5404C67.2541 48.5404 70.8184 44.976 70.8184 40.596C70.8184 36.201 67.2541 32.6215 62.8741 32.6215Z" fill="#364E0D"/>
<path d="M33.7245 28.8754H21.7529V68.2115C21.7529 70.7946 23.847 72.8886 26.4301 72.8886H29.0473C31.6305 72.8886 33.7245 70.7946 33.7245 68.2115V28.8754Z" fill="#364E0D"/>
<path d="M38.2292 28.0598H22.1592V53.1013H38.2292C51.6259 53.1013 59.5249 63.2054 60.9598 65.2292V15.9469C59.5249 17.9708 51.6711 28.0598 38.2292 28.0598Z" fill="#364E0D"/>
</svg>
