<svg width="88" height="88" viewBox="0 0 88 88" fill="none" xmlns="http://www.w3.org/2000/svg">
<rect width="87.6025" height="87.6025" rx="8.76025" fill="#FFC6AB"/>
<path d="M68.7374 44.1314C68.7378 37.4989 66.1488 31.2569 61.4473 26.5547C56.7454 21.8524 50.5026 19.2626 43.8687 19.2626C30.156 19.2626 19 30.4188 19 44.1314C19 57.844 30.156 69 43.8687 69C57.5811 69.0002 68.7374 57.844 68.7374 44.1314ZM43.8687 64.398C32.6946 64.398 23.604 55.3053 23.604 44.1292C23.604 43.3414 23.6566 42.5301 23.7599 41.717C24.4979 42.8046 25.3753 44.0492 26.3687 45.4164C29.4155 49.6031 31.757 50.3607 34.2367 51.1631C35.7155 51.6417 37.2447 52.1364 39.1054 53.5135C40.3826 54.4577 41.327 54.8978 42.0775 54.8978C42.5855 54.8978 43.0318 54.6994 43.3335 54.3397C43.4786 54.1669 43.5851 53.9631 43.6492 53.735C43.9708 54.5899 44.2949 55.3128 44.5096 55.7686C44.6397 56.0451 44.8855 56.2657 45.1711 56.3748C45.5213 56.5086 46.1411 56.9521 46.2434 57.7634C46.2841 58.0879 46.2898 58.6438 46.296 59.2332C46.3125 60.795 46.3331 62.7389 46.9224 64.1526C45.8922 64.3152 44.8645 64.398 43.8687 64.398ZM51.3866 50.414C51.0589 50.3158 50.7161 50.2132 50.3628 50.1041C49.0002 49.6865 48.0995 47.9477 47.8137 47.0866C47.7019 46.7504 47.4457 46.4817 47.1152 46.3544C46.3903 46.0757 45.7647 45.9403 45.2015 45.9403C44.2681 45.9403 43.5045 46.3355 43.0495 47.0538C42.5482 47.8464 42.4497 49.0686 42.7575 50.6858C41.8964 49.4553 40.7872 48.7205 39.7906 48.7205H39.758C39.0117 48.7205 37.7651 46.6566 37.147 44.809L37.145 44.8031C36.9327 44.0631 36.6064 41.9258 37.6342 40.932C38.0042 40.5735 38.1742 40.5636 38.1742 40.5636C38.2534 40.5636 38.4532 40.671 38.6512 40.7808C38.9912 40.9697 39.5602 41.2859 40.2643 41.2859C40.4521 41.2859 40.6404 41.2634 40.8279 41.2185C41.6878 41.0082 42.4231 40.4184 42.8983 39.558C43.5013 38.4675 43.6097 37.0628 43.1897 35.8031C43.1557 35.7008 43.119 35.6069 43.0769 35.5153C43.3424 35.4456 43.6282 35.3751 43.9346 35.304C45.3912 34.9674 47.3502 34.3412 47.5422 32.7977C47.712 31.4412 46.3858 30.5588 45.8078 30.2427C45.4853 30.0663 45.1002 30.0498 44.7644 30.1966C44.6629 30.2411 44.1223 30.4623 43.4242 30.4623C42.8099 30.4623 42.2753 30.2971 41.7917 29.9589C41.2881 29.6052 40.808 29.4334 40.3242 29.4334C39.8973 29.4334 39.5036 29.5662 39.1199 29.8391C38.9742 29.6175 38.8089 29.3315 38.629 28.9889C37.7768 27.3677 36.3504 26.4369 34.3898 26.2226C37.317 24.6594 40.5064 23.867 43.8689 23.867C49.3481 23.867 54.4804 26.0284 58.3205 29.9531C55.9647 30.5735 54.4077 31.8458 53.8178 33.6336L51.1784 36.6656C49.1646 39.0443 49.6726 41.1427 50.1546 42.1816C50.9766 43.9543 52.9239 45.2787 54.1163 45.2787C54.2812 45.2787 54.4395 45.2551 54.5844 45.2096C54.7838 45.1471 54.9844 45.0585 55.16 44.9808C55.4636 44.847 55.777 44.7091 56.0058 44.7091C56.1951 44.7091 56.498 44.8909 56.864 45.7544C57.4288 47.1011 57.7122 49.3542 57.9398 51.1639C57.9807 51.4886 58.0179 51.7837 58.0542 52.0584C57.4199 51.7692 56.6282 51.7323 56.0098 51.7323C55.5399 51.7323 55.0654 51.7595 54.6629 51.7865C54.193 51.2691 53.3277 50.9941 51.414 50.4217L51.3866 50.414Z" fill="#662D12"/>
</svg>
