<svg width="88" height="88" viewBox="0 0 88 88" fill="none" xmlns="http://www.w3.org/2000/svg">
<rect width="87.6025" height="87.6025" rx="8.76025" fill="#99E9EC"/>
<path fill-rule="evenodd" clip-rule="evenodd" d="M23.6547 20.3276C21.817 20.3276 20.3271 21.8175 20.3271 23.6552V63.5864C20.3271 65.4241 21.817 66.914 23.6547 66.914H63.5859C65.4237 66.914 66.9135 65.4241 66.9135 63.5864V23.6552C66.9135 21.8175 65.4237 20.3276 63.5859 20.3276H23.6547ZM51.1074 36.9656C51.1074 34.4785 49.9796 32.5133 48.3043 31.2369C47.3966 30.5454 46.3578 30.0739 45.2841 29.7945V26.9828C45.2841 26.0639 44.5392 25.319 43.6203 25.319C42.7014 25.319 41.9565 26.0639 41.9565 26.9828V29.5129C40.3173 29.6485 38.6446 30.1912 37.2721 31.2369C35.5968 32.5134 34.4692 34.4788 34.4694 36.9659C34.4697 39.5232 35.6565 41.3354 37.2149 42.597C38.5799 43.7019 40.3107 44.4428 41.6631 45.0218L41.8055 45.0828C43.3454 45.7428 44.4514 46.2368 45.2217 46.8604C45.8469 47.3665 46.116 47.842 46.116 48.6122C46.116 49.4528 45.7879 49.9832 45.2794 50.3706C44.7016 50.8108 43.8067 51.1079 42.7884 51.1079C41.7701 51.1079 40.8752 50.8108 40.2974 50.3706C39.7889 49.9832 39.4608 49.4528 39.4608 48.6122C39.4608 47.2339 38.3435 46.1165 36.9651 46.1165C35.5868 46.1165 34.4694 47.2339 34.4694 48.6122C34.4694 51.0992 35.5971 53.0645 37.2724 54.3409C38.6448 55.3866 40.3174 55.9292 41.9565 56.0649V58.595C41.9565 59.5139 42.7014 60.2588 43.6203 60.2588C44.5392 60.2588 45.2841 59.5139 45.2841 58.595V55.7833C46.3578 55.504 47.3968 55.0325 48.3044 54.3409C49.9797 53.0645 51.1074 51.0992 51.1074 48.6122C51.1074 46.0548 49.9208 44.2426 48.3624 42.9809C46.9974 41.8759 45.2666 41.1349 43.9141 40.5559L43.7718 40.495C42.2319 39.835 41.1258 39.341 40.3555 38.7174C39.7301 38.2112 39.4609 37.7356 39.4608 36.9654C39.4607 36.1249 39.7888 35.5945 40.2971 35.2072C40.8749 34.767 41.7698 34.4699 42.7882 34.4699C43.8065 34.4699 44.7015 34.767 45.2794 35.2073C45.7879 35.5947 46.116 36.1251 46.116 36.9656C46.116 38.3439 47.2334 39.4613 48.6117 39.4613C49.99 39.4613 51.1074 38.3439 51.1074 36.9656Z" fill="#005053"/>
</svg>
