<svg width="88" height="88" viewBox="0 0 88 88" fill="none" xmlns="http://www.w3.org/2000/svg">
<rect width="87.6025" height="87.6025" rx="8.76025" fill="#F3AFB9"/>
<path d="M57.3477 54.6254V64.7294C57.3477 65.6594 58.1016 66.4134 59.0316 66.4134H69.1356C70.0657 66.4134 70.8196 65.6594 70.8196 64.7294V54.6254C70.8196 53.6953 70.0657 52.9414 69.1356 52.9414H59.0316C58.1016 52.9414 57.3477 53.6953 57.3477 54.6254Z" fill="#5A1620"/>
<path d="M18.684 66.553H28.788C29.7179 66.553 30.4719 65.7991 30.4719 64.869V54.765C30.4719 53.8351 29.7179 53.0811 28.788 53.0811H18.684C17.7539 53.0811 17 53.8351 17 54.765V64.869C17 65.7991 17.7539 66.553 18.684 66.553Z" fill="#5A1620"/>
<path d="M48.9266 66.4832C49.8567 66.4832 50.6106 65.7292 50.6106 64.7992V54.6952C50.6106 53.7651 49.8567 53.0112 48.9266 53.0112H38.8227C37.8926 53.0112 37.1387 53.7651 37.1387 54.6952V64.7992C37.1387 65.7292 37.8926 66.4832 38.8227 66.4832H48.9266Z" fill="#5A1620"/>
<path d="M37.1371 34.4719H50.6091C51.5392 34.4719 52.2931 33.718 52.2931 32.788V22.684C52.2931 21.7539 51.5392 21 50.6091 21H37.1371C36.207 21 35.4531 21.7539 35.4531 22.684V32.788C35.4531 33.718 36.207 34.4719 37.1371 34.4719Z" fill="#5A1620"/>
<path d="M22.4054 53.9467H24.9314C25.1639 53.9467 25.3524 53.7582 25.3524 53.5257V48.8106C25.3524 47.8844 26.1102 47.1266 27.0364 47.1266H42.222V53.4601C42.222 53.6927 42.4105 53.8811 42.643 53.8811H45.169C45.4015 53.8811 45.59 53.6927 45.59 53.4601V47.1266H60.6489C61.5751 47.1266 62.3329 47.8844 62.3329 48.8106V53.391C62.3329 53.6235 62.5214 53.812 62.7539 53.812H65.2799C65.5124 53.812 65.7009 53.6235 65.7009 53.391V48.8106C65.7009 46.0204 63.439 43.7586 60.6489 43.7586H45.59V34.0267C45.59 33.7942 45.4015 33.6057 45.169 33.6057H42.643C42.4105 33.6057 42.222 33.7942 42.222 34.0267V43.7586H27.0364C24.2578 43.7586 21.9844 46.0321 21.9844 48.8106V53.5257C21.9844 53.7583 22.1729 53.9467 22.4054 53.9467Z" fill="#5A1620"/>
</svg>
