<svg width="88" height="88" viewBox="0 0 88 88" fill="none" xmlns="http://www.w3.org/2000/svg">
<rect width="87.6025" height="87.6025" rx="8.76025" fill="#FDF2AA"/>
<path fill-rule="evenodd" clip-rule="evenodd" d="M55.2027 46.9483C59.7352 46.9483 63.4095 43.2238 63.4095 38.6293C63.4095 34.0349 59.7352 30.3103 55.2027 30.3103C50.6702 30.3103 46.9959 34.0349 46.9959 38.6293C46.9959 43.2238 50.6702 46.9483 55.2027 46.9483Z" fill="#645911"/>
<path fill-rule="evenodd" clip-rule="evenodd" d="M32.2237 43.6207C37.6627 43.6207 42.0718 39.1513 42.0718 33.6379C42.0718 28.1246 37.6627 23.6552 32.2237 23.6552C26.7847 23.6552 22.3756 28.1246 22.3756 33.6379C22.3756 39.1513 26.7847 43.6207 32.2237 43.6207Z" fill="#645911"/>
<path d="M38.7892 63.5863C38.8313 56.391 44.676 50.5803 51.8714 50.5803L53.8003 50.5803C61.5521 50.5803 68.3091 55.8561 70.1892 63.3764C70.2159 63.483 70.1352 63.5863 70.0253 63.5863H38.7892Z" fill="#645911"/>
<path d="M17.5366 60.9039C19.1596 52.7893 26.2845 46.9483 34.5597 46.9483H35.282C44.4709 46.9483 51.92 54.3974 51.92 63.5863H17.2489C17.1202 63.5863 17.0237 63.4685 17.049 63.3424L17.5366 60.9039Z" fill="#645911"/>
</svg>
