<svg width="88" height="88" viewBox="0 0 88 88" fill="none" xmlns="http://www.w3.org/2000/svg">
<rect width="87.6025" height="87.6025" rx="8.76025" fill="#ABB7FF"/>
<path d="M23.335 58.4378H31.1843L30.3776 55.2732V39.5746L31.1739 36.5135H23.3453L24.1416 39.5746V55.2732L23.335 58.4378Z" fill="#121E66"/>
<path d="M34.0264 58.4378H41.886L41.0794 55.2732V39.5746L41.8756 36.5135H34.0367L34.833 39.5746V55.2732L34.0264 58.4378Z" fill="#121E66"/>
<path d="M44.7305 58.4378H52.5798L51.7731 55.2732V39.5746L52.5695 36.5135H44.7305L45.5268 39.5746V55.2732L44.7305 58.4378Z" fill="#121E66"/>
<path d="M55.4238 58.4378H63.2731L62.4665 55.2732V39.5746L63.2628 36.5135H55.4342L56.2304 39.5746V55.2732L55.4238 58.4378Z" fill="#121E66"/>
<path d="M19.1861 60.5059C19.062 60.8264 19 61.1781 19 61.54V64.6425C19 65.2114 19.4654 65.6767 20.0342 65.6767H67.6057C68.1745 65.6767 68.6399 65.2114 68.6399 64.6425V61.54C68.6399 61.1781 68.5779 60.8264 68.4538 60.5059H19.1861Z" fill="#121E66"/>
<path d="M65.5375 58.4375H22.1025V60.5058H65.5375V58.4375Z" fill="#121E66"/>
<path d="M68.0194 31.4775L44.2336 21.0841C43.9648 20.9703 43.6649 20.9703 43.396 21.0944L19.6102 31.6739C19.2379 31.8394 19 32.2117 19 32.615V36.5138H68.6399V32.4289C68.6399 32.0152 68.3917 31.6429 68.0194 31.4775ZM43.82 34.4455C41.5345 34.4455 39.6833 32.584 39.6833 30.3089C39.6833 28.0233 41.5345 26.1722 43.82 26.1722C46.1055 26.1722 47.9566 28.0233 47.9566 30.3089C47.9566 32.584 46.1055 34.4455 43.82 34.4455Z" fill="#121E66"/>
</svg>
