<svg width="88" height="88" viewBox="0 0 88 88" fill="none" xmlns="http://www.w3.org/2000/svg">
<rect width="87.6025" height="87.6025" rx="8.76025" fill="#D7AAFF"/>
<path fill-rule="evenodd" clip-rule="evenodd" d="M25.5442 45.5863C26.4009 44.416 26.4009 42.8255 25.5442 41.6551L20.3565 34.5686C21.2872 32.1783 22.5758 29.9667 24.1563 27.9998L32.8804 28.9485C34.3223 29.1053 35.6997 28.31 36.2849 26.9829L39.8266 18.9504C41.0639 18.7617 42.3311 18.6638 43.6211 18.6638C44.9111 18.6638 46.1782 18.7617 47.4155 18.9504L50.9572 26.9829C51.5424 28.31 52.9198 29.1053 54.3617 28.9485L63.0859 27.9998C64.6664 29.9667 65.9549 32.1782 66.8857 34.5685L61.6979 41.6551C60.8412 42.8255 60.8412 44.416 61.6979 45.5863L66.8857 52.673C65.955 55.0633 64.6665 57.2748 63.086 59.2417L54.3617 58.293C52.9198 58.1362 51.5424 58.9314 50.9572 60.2585L47.4155 68.2911C46.1782 68.4799 44.9111 68.5777 43.6211 68.5777C42.3311 68.5777 41.0639 68.4799 39.8266 68.2911L36.2849 60.2585C35.6997 58.9314 34.3223 58.1362 32.8804 58.293L24.1562 59.2416C22.5757 57.2747 21.2872 55.0632 20.3564 52.6729L25.5442 45.5863ZM43.6211 50.276C39.9455 50.276 36.9659 47.2963 36.9659 43.6208C36.9659 39.9452 39.9455 36.9656 43.6211 36.9656C47.2967 36.9656 50.2763 39.9452 50.2763 43.6208C50.2763 47.2963 47.2967 50.276 43.6211 50.276Z" fill="#3E1166"/>
</svg>
